Coordinates
version=1
nRows=13
nColumns=38
inDegrees=no

Units are S.I. units (second, meters, Newtons, ...)
If the header above contains a line with 'inDegrees', this indicates whether rotational values are in degrees (yes) or radians (no).

endheader
time	pelvis_tilt	pelvis_list	pelvis_rotation	pelvis_tx	pelvis_ty	pelvis_tz	hip_flexion_r	hip_adduction_r	hip_rotation_r	knee_angle_r	ankle_angle_r	subtalar_angle_r	mtp_angle_r	hip_flexion_l	hip_adduction_l	hip_rotation_l	knee_angle_l	ankle_angle_l	subtalar_angle_l	mtp_angle_l	lumbar_extension	lumbar_bending	lumbar_rotation	arm_flex_r	arm_add_r	arm_rot_r	elbow_flex_r	pro_sup_r	wrist_flex_r	wrist_dev_r	arm_flex_l	arm_add_l	arm_rot_l	elbow_flex_l	pro_sup_l	wrist_flex_l	wrist_dev_l
8.1325	-0.0959383	0.12595	-3.252	-0.1928	0.921052	-0.000519296	0.321798	0.164424	-0.130299	0.775471	0.299741	0	0	0.109684	-0.178235	-0.142684	1.39089	-0.188411	0	0	-0.518555	0.200122	0.197322	0.0519348	-0.62587	0.462244	2.13139	1.34133	0	0	0.328008	-0.412742	0.856082	1.71162	1.36996	0	0
8.1425	-0.111335	0.134109	-3.26366	-0.189679	0.919911	-0.00185734	0.289813	0.17262	-0.120564	0.790909	0.325697	0	0	0.13197	-0.187799	-0.140666	1.42653	-0.159728	0	0	-0.545075	0.202049	0.224389	0.118511	-0.627467	0.483444	2.1385	1.3401	0	0	0.299358	-0.409356	0.844824	1.69299	1.36657	0	0
8.15249	-0.123633	0.139341	-3.27384	-0.186725	0.919312	-0.00315719	0.258195	0.177682	-0.110447	0.80067	0.350621	0	0	0.157462	-0.194152	-0.137455	1.45494	-0.131611	0	0	-0.566423	0.200985	0.248501	0.184672	-0.627257	0.504932	2.14494	1.3394	0	0	0.268703	-0.408207	0.831989	1.67834	1.36434	0	0
8.16248	-0.132427	0.141242	-3.28244	-0.183993	0.919212	-0.00438983	0.227679	0.179231	-0.100218	0.805095	0.373966	0	0	0.186232	-0.196965	-0.13355	1.47564	-0.104349	0	0	-0.581967	0.196856	0.269425	0.249234	-0.625323	0.526174	2.15095	1.33925	0	0	0.236346	-0.409302	0.817872	1.66776	1.36318	0	0
8.17247	-0.137349	0.13952	-3.28941	-0.181534	0.919567	-0.00552814	0.198953	0.177023	-0.0901789	0.804546	0.395213	0	0	0.218284	-0.196016	-0.129437	1.48823	-0.0782341	0	0	-0.59118	0.189676	0.287013	0.311094	-0.621819	0.546731	2.15673	1.33966	0	0	0.202591	-0.412569	0.802753	1.66112	1.36294	0	0
8.18246	-0.138165	0.134045	-3.29468	-0.179399	0.920339	-0.00655167	0.172526	0.17099	-0.080641	0.799358	0.413831	0	0	0.253434	-0.191235	-0.125552	1.4924	-0.0535782	0	0	-0.59374	0.179561	0.301215	0.369267	-0.61694	0.566268	2.16239	1.34064	0	0	0.167741	-0.417867	0.786899	1.6581	1.36332	0	0
8.19245	-0.134858	0.124884	-3.29818	-0.177635	0.921505	-0.00744942	0.148618	0.161264	-0.0719166	0.789821	0.429251	0	0	0.291213	-0.182731	-0.122255	1.48785	-0.0306867	0	0	-0.589624	0.166741	0.312095	0.422941	-0.610904	0.584578	2.16797	1.34222	0	0	0.132104	-0.425017	0.770548	1.65825	1.36401	0	0
8.20244	-0.127645	0.112309	-3.29982	-0.176282	0.923058	-0.00821989	0.127148	0.14817	-0.0642932	0.77619	0.440851	0	0	0.33086	-0.170788	-0.119801	1.47438	-0.00982443	0	0	-0.579145	0.151552	0.319823	0.471533	-0.603937	0.601604	2.17348	1.34433	0	0	0.0959789	-0.43381	0.753886	1.66108	1.36471	0	0
8.21243	-0.116954	0.096781	-3.29957	-0.175368	0.925	-0.00886919	0.107793	0.132214	-0.0579976	0.758724	0.447961	0	0	0.371379	-0.155844	-0.118337	1.45186	0.00882753	0	0	-0.56293	0.134406	0.324669	0.514733	-0.596276	0.617447	2.1789	1.3468	0	0	0.0596304	-0.444011	0.737008	1.66611	1.36515	0	0
8.22242	-0.103367	0.078922	-3.29746	-0.174902	0.927338	-0.00940818	0.0900682	0.114046	-0.0531645	0.737717	0.449887	0	0	0.411618	-0.138467	-0.117903	1.42028	0.0252024	0	0	-0.541865	0.11578	0.327008	0.552488	-0.588166	0.632346	2.1842	1.34936	0	0	0.0232854	-0.45535	0.719913	1.67292	1.36517	0	0
8.23241	-0.0875584	0.0594783	-3.29364	-0.174882	0.930077	-0.00985025	0.073409	0.0944267	-0.0498204	0.713509	0.445957	0	0	0.450367	-0.119326	-0.118433	1.37976	0.0393558	0	0	-0.517008	0.0962018	0.327325	0.584965	-0.579872	0.646636	2.18935	1.35169	0	0	-0.0128489	-0.467512	0.702559	1.68112	1.36471	0	0
8.2424	-0.0702312	0.0392686	-3.28835	-0.175285	0.933219	-0.0102102	0.0572608	0.0741728	-0.0478797	0.686504	0.435575	0	0	0.486455	-0.0991485	-0.119757	1.33054	0.0514526	0	0	-0.48949	0.0762411	0.326206	0.612482	-0.571678	0.660682	2.19429	1.35351	0	0	-0.0485584	-0.480136	0.684913	1.69033	1.36384	0	0
8.25239	-0.0520542	0.0191253	-3.28194	-0.176081	0.93675	-0.0105031	0.0411592	0.0541027	-0.0471556	0.657182	0.418283	0	0	0.518853	-0.0786722	-0.121611	1.27306	0.0617449	0	0	-0.460405	0.0564913	0.324316	0.635436	-0.563881	0.674827	2.19897	1.35458	0	0	-0.0836025	-0.492836	0.666984	1.70019	1.3627	0	0
